<svg viewBox="0 0 1112.2000732421875 400" xmlns="http://www.w3.org/2000/svg"><g><g><g><g><g><line x1="51.5625" y1="377" x2="46.5625" y2="377" style="visibility: inherit;" fill="rgb(0, 0, 0)" stroke="rgb(204, 204, 204)" stroke-width="1px"></line><line x1="51.5625" y1="339.3" x2="46.5625" y2="339.3" style="visibility: inherit;" fill="rgb(0, 0, 0)" stroke="rgb(204, 204, 204)" stroke-width="1px"></line><line x1="51.5625" y1="301.6" x2="46.5625" y2="301.6" style="visibility: inherit;" fill="rgb(0, 0, 0)" stroke="rgb(204, 204, 204)" stroke-width="1px"></line><line x1="51.5625" y1="263.9" x2="46.5625" y2="263.9" style="visibility: inherit;" fill="rgb(0, 0, 0)" stroke="rgb(204, 204, 204)" stroke-width="1px"></line><line x1="51.5625" y1="226.2" x2="46.5625" y2="226.2" style="visibility: inherit;" fill="rgb(0, 0, 0)" stroke="rgb(204, 204, 204)" stroke-width="1px"></line><line x1="51.5625" y1="188.5" x2="46.5625" y2="188.5" style="visibility: inherit;" fill="rgb(0, 0, 0)" stroke="rgb(204, 204, 204)" stroke-width="1px"></line><line x1="51.5625" y1="150.8" x2="46.5625" y2="150.8" style="visibility: inherit;" fill="rgb(0, 0, 0)" stroke="rgb(204, 204, 204)" stroke-width="1px"></line><line x1="51.5625" y1="113.10000000000002" x2="46.5625" y2="113.10000000000002" style="visibility: inherit;" fill="rgb(0, 0, 0)" stroke="rgb(204, 204, 204)" stroke-width="1px"></line><line x1="51.5625" y1="75.40000000000002" x2="46.5625" y2="75.40000000000002" style="visibility: inherit;" fill="rgb(0, 0, 0)" stroke="rgb(204, 204, 204)" stroke-width="1px"></line><line x1="51.5625" y1="37.69999999999999" x2="46.5625" y2="37.69999999999999" style="visibility: inherit;" fill="rgb(0, 0, 0)" stroke="rgb(204, 204, 204)" stroke-width="1px"></line><line x1="51.5625" y1="0" x2="46.5625" y2="0" style="visibility: inherit;" fill="rgb(0, 0, 0)" stroke="rgb(204, 204, 204)" stroke-width="1px"></line></g><g transform="translate(41.5625, 0)"><text x="0" y="377" dx="0em" dy="0.3em" style="text-anchor: end; visibility: hidden; font-family: Roboto, sans-serif; font-size: 12px; font-weight: 200;" fill="rgb(33, 33, 33)" stroke="none" stroke-width="1px">-0.1</text><text x="0" y="339.3" dx="0em" dy="0.3em" style="text-anchor: end; visibility: inherit; font-family: Roboto, sans-serif; font-size: 12px; font-weight: 200;" fill="rgb(33, 33, 33)" stroke="none" stroke-width="1px">0</text><text x="0" y="301.6" dx="0em" dy="0.3em" style="text-anchor: end; visibility: inherit; font-family: Roboto, sans-serif; font-size: 12px; font-weight: 200;" fill="rgb(33, 33, 33)" stroke="none" stroke-width="1px">0.1</text><text x="0" y="263.9" dx="0em" dy="0.3em" style="text-anchor: end; visibility: inherit; font-family: Roboto, sans-serif; font-size: 12px; font-weight: 200;" fill="rgb(33, 33, 33)" stroke="none" stroke-width="1px">0.2</text><text x="0" y="226.2" dx="0em" dy="0.3em" style="text-anchor: end; visibility: inherit; font-family: Roboto, sans-serif; font-size: 12px; font-weight: 200;" fill="rgb(33, 33, 33)" stroke="none" stroke-width="1px">0.3</text><text x="0" y="188.5" dx="0em" dy="0.3em" style="text-anchor: end; visibility: inherit; font-family: Roboto, sans-serif; font-size: 12px; font-weight: 200;" fill="rgb(33, 33, 33)" stroke="none" stroke-width="1px">0.4</text><text x="0" y="150.8" dx="0em" dy="0.3em" style="text-anchor: end; visibility: inherit; font-family: Roboto, sans-serif; font-size: 12px; font-weight: 200;" fill="rgb(33, 33, 33)" stroke="none" stroke-width="1px">0.5</text><text x="0" y="113.10000000000002" dx="0em" dy="0.3em" style="text-anchor: end; visibility: inherit; font-family: Roboto, sans-serif; font-size: 12px; font-weight: 200;" fill="rgb(33, 33, 33)" stroke="none" stroke-width="1px">0.6</text><text x="0" y="75.40000000000002" dx="0em" dy="0.3em" style="text-anchor: end; visibility: inherit; font-family: Roboto, sans-serif; font-size: 12px; font-weight: 200;" fill="rgb(33, 33, 33)" stroke="none" stroke-width="1px">0.7</text><text x="0" y="37.69999999999999" dx="0em" dy="0.3em" style="text-anchor: end; visibility: inherit; font-family: Roboto, sans-serif; font-size: 12px; font-weight: 200;" fill="rgb(33, 33, 33)" stroke="none" stroke-width="1px">0.8</text><text x="0" y="0" dx="0em" dy="0.3em" style="text-anchor: end; visibility: hidden; font-family: Roboto, sans-serif; font-size: 12px; font-weight: 200;" fill="rgb(33, 33, 33)" stroke="none" stroke-width="1px">0.9</text></g><line x1="51.5625" y1="0" x2="51.5625" y2="377" fill="rgb(0, 0, 0)" stroke="rgb(204, 204, 204)" stroke-width="1px"></line></g></g><g transform="translate(51, 0)" clip-path="url(#clip_0)"><clipPath id="clip_0"><rect width="1060" height="377"></rect></clipPath><g><g><g><line x1="0" y1="0" x2="0" y2="377" fill="rgb(0, 0, 0)" stroke="rgb(66, 66, 66)" stroke-width="1px" opacity="0.25"></line><line x1="88.38645833333334" y1="0" x2="88.38645833333334" y2="377" fill="rgb(0, 0, 0)" stroke="rgb(66, 66, 66)" stroke-width="1px" opacity="0.25"></line><line x1="176.77291666666667" y1="0" x2="176.77291666666667" y2="377" fill="rgb(0, 0, 0)" stroke="rgb(66, 66, 66)" stroke-width="1px" opacity="0.25"></line><line x1="265.159375" y1="0" x2="265.159375" y2="377" fill="rgb(0, 0, 0)" stroke="rgb(66, 66, 66)" stroke-width="1px" opacity="0.25"></line><line x1="353.54583333333335" y1="0" x2="353.54583333333335" y2="377" fill="rgb(0, 0, 0)" stroke="rgb(66, 66, 66)" stroke-width="1px" opacity="0.25"></line><line x1="441.9322916666667" y1="0" x2="441.9322916666667" y2="377" fill="rgb(0, 0, 0)" stroke="rgb(66, 66, 66)" stroke-width="1px" opacity="0.25"></line><line x1="530.31875" y1="0" x2="530.31875" y2="377" fill="rgb(0, 0, 0)" stroke="rgb(66, 66, 66)" stroke-width="1px" opacity="0.25"></line><line x1="618.7052083333334" y1="0" x2="618.7052083333334" y2="377" fill="rgb(0, 0, 0)" stroke="rgb(66, 66, 66)" stroke-width="1px" opacity="0.25"></line><line x1="707.0916666666667" y1="0" x2="707.0916666666667" y2="377" fill="rgb(0, 0, 0)" stroke="rgb(66, 66, 66)" stroke-width="1px" opacity="0.25"></line><line x1="795.4781250000001" y1="0" x2="795.4781250000001" y2="377" fill="rgb(0, 0, 0)" stroke="rgb(66, 66, 66)" stroke-width="1px" opacity="0.25"></line><line x1="883.8645833333334" y1="0" x2="883.8645833333334" y2="377" fill="rgb(0, 0, 0)" stroke="rgb(66, 66, 66)" stroke-width="1px" opacity="0.25"></line><line x1="972.2510416666667" y1="0" x2="972.2510416666667" y2="377" fill="rgb(0, 0, 0)" stroke="rgb(66, 66, 66)" stroke-width="1px" opacity="0.25"></line><line x1="1060.6375" y1="0" x2="1060.6375" y2="377" fill="rgb(0, 0, 0)" stroke="rgb(66, 66, 66)" stroke-width="1px" opacity="0.25"></line></g><g><line x1="0" y1="377" x2="1060.6375" y2="377" fill="rgb(0, 0, 0)" stroke="rgb(66, 66, 66)" stroke-width="1px" opacity="0.25"></line><line x1="0" y1="339.3" x2="1060.6375" y2="339.3" fill="rgb(0, 0, 0)" stroke="rgb(66, 66, 66)" stroke-width="1px" opacity="0.25"></line><line x1="0" y1="301.6" x2="1060.6375" y2="301.6" fill="rgb(0, 0, 0)" stroke="rgb(66, 66, 66)" stroke-width="1px" opacity="0.25"></line><line x1="0" y1="263.9" x2="1060.6375" y2="263.9" fill="rgb(0, 0, 0)" stroke="rgb(66, 66, 66)" stroke-width="1px" opacity="0.25"></line><line x1="0" y1="226.2" x2="1060.6375" y2="226.2" fill="rgb(0, 0, 0)" stroke="rgb(66, 66, 66)" stroke-width="1px" opacity="0.25"></line><line x1="0" y1="188.5" x2="1060.6375" y2="188.5" fill="rgb(0, 0, 0)" stroke="rgb(66, 66, 66)" stroke-width="1px" opacity="0.25"></line><line x1="0" y1="150.8" x2="1060.6375" y2="150.8" fill="rgb(0, 0, 0)" stroke="rgb(66, 66, 66)" stroke-width="1px" opacity="0.25"></line><line x1="0" y1="113.10000000000002" x2="1060.6375" y2="113.10000000000002" fill="rgb(0, 0, 0)" stroke="rgb(66, 66, 66)" stroke-width="1px" opacity="0.25"></line><line x1="0" y1="75.40000000000002" x2="1060.6375" y2="75.40000000000002" fill="rgb(0, 0, 0)" stroke="rgb(66, 66, 66)" stroke-width="1px" opacity="0.25"></line><line x1="0" y1="37.69999999999999" x2="1060.6375" y2="37.69999999999999" fill="rgb(0, 0, 0)" stroke="rgb(66, 66, 66)" stroke-width="1px" opacity="0.25"></line><line x1="0" y1="0" x2="1060.6375" y2="0" fill="rgb(0, 0, 0)" stroke="rgb(66, 66, 66)" stroke-width="1px" opacity="0.25"></line></g></g></g><g><g><line x1="0" y1="339.3" x2="1060.6375" y2="339.3" fill="rgb(0, 0, 0)" stroke="rgb(153, 153, 153)" stroke-width="1.5px"></line></g></g><g><g><line x1="88.38645833333334" y1="0" x2="88.38645833333334" y2="377" fill="rgb(0, 0, 0)" stroke="rgb(153, 153, 153)" stroke-width="1.5px"></line></g></g><g><g><g><g><g><path stroke="rgb(255, 112, 67)" stroke-width="2px" d="M107.65470625000002,49.13982187509538L114.90239583333334,202.86585681352682L121.31925270833334,251.27916400512672L123.74104166666667,274.2238095343742L131.62511375,292.03790111919653L132.5796875,301.1280902158491L141.41833333333335,309.44231859418005L144.05224979166667,313.299341398763L150.25697916666667,318.6830962518158L153.43889166666668,322.2025186047392L159.095625,325.3375443331616L161.60580041666668,327.44321080768475L167.93427083333333,326.6580478990181L173.75009979166668,328.6765014831977L176.77291666666667,326.9800057879294L185.6115625,328.3651262900214L185.62923979166666,329.97551912477303L194.45020833333334,331.27248605713316L196.55380604166666,332.21892866457335L203.28885416666668,333.1242825933451L208.0970775,333.4701408569822L212.12750000000003,333.20097238790765L218.33222937500003,331.60347542511073L220.96614583333334,332.90514114355665L229.8047916666667,333.6474635544203L231.14826583333334,334.33278886868123L238.6434375,334.366043372732L244.08804333333333,334.6858914604504L247.48208333333335,330.7060963387016L254.606031875,331.05025183602976L256.3207291666667,332.39511328887806L265.159375,333.3750773834291L267.42206833333336,331.8252575187446L273.9980208333334,332.79266312633086L279.01837166666667,333.37600155432915L282.8366666666667,334.0331151826745L290.7384160416667,334.59997610029683L291.6753125,332.59724556555716L300.51395833333333,325.85359142791475L301.910464375,321.9734983881285L309.3526041666667,322.6179464092972L312.728966875,325.3208075490543L318.19125,327.21013219827535L323.26463270833335,327.5435703336378L327.02989583333334,326.17343786553073L335.1260954166667,328.40416148599L335.86854166666666,328.69076116798556L344.70718750000003,330.478517753923L346.7931079166667,327.39366104203935L353.54583333333335,329.2778649743891L359.02579375000005,331.1200307522656L362.38447916666667,331.36189415398235L368.57153124999996,332.2388595949432L371.223125,330.79287629378774L379.708225,332.27889501254714L380.06177083333336,333.2570472613468L388.9004166666667,330.68902225359295L392.1353610416667,327.8983637836651L397.73906250000005,329.6009809819978L402.40586750000006,331.3126911609342L406.57770833333336,332.04028947707525L413.9314616666667,329.6912406010467L415.4163541666667,331.0611539850971L424.25500000000005,330.06460460903673L424.3257091666667,331.18286144736965L433.09364583333337,332.3949815220544L437.60135520833336,328.9992089806653L441.9322916666667,329.3969060234104L447.51831583333336,330.68757832017604L450.7709375,332.07303942027124L459.6095833333334,332.7446832552083L462.5793683333333,333.76237150404944L468.4482291666667,334.47523884319935L474.40547645833334,335.0000141254739L477.286875,335.65325573129763L485.5598475,334.53551191916705L486.1255208333333,334.16374925638354L494.9641666666667,334.0876065085478L497.73950145833334,330.84012815142063L503.8028125,331.83491495891803L511.5101116666667,333.0684248022553L512.6414583333334,332.6055050174402L521.4801041666667,333.6812151843468L523.7427975,332.4534301714746L530.31875,333.5798369504282L536.0815470833334,334.49259251354164L539.1573958333333,335.0062853524282L547.9960416666668,335.6329553090317L549.2688066666667,333.9087604491682L556.8346875000001,334.3007040578959L560.8474327083334,333.602286549605L565.6733333333334,334.49491108065786L571.7543216666667,335.0615494884367L574.5119791666666,333.19335440124416L583.350625,334.1519620029066L583.403656875,330.5326799838916L592.1892708333334,329.508314741469L597.5454902083334,328.7708694812937L601.0279166666667,330.53499921354427L606.6669727083333,329.72516563193653L609.8665625,331.3282458934265L617.7859891666667,329.7575575341134L618.7052083333334,331.3808878644634L627.5438541666667,332.78651368728674L630.3368662500001,333.8262459517806L636.3825,334.63711526979137L642.5695520833334,331.30067600114205L645.2211458333333,332.272934423737L654.0597916666667,333.47550548193004L654.1128235416667,332.3062974339631L662.8984375,333.21605464228395L669.9693541666668,334.21392866015447L671.7370833333333,332.49717160714306L680.5757291666667,331.1178991936144L684.1111875,330.29400770783656L689.4143750000001,329.1920966175313L698.2530208333334,330.7112008187889L698.270698125,329.53417414322564L707.0916666666667,331.22329477909517L708.877073125,331.85385173841206L715.9303125000001,333.00836965518494L720.4026672916667,333.98259485247036L724.7689583333333,334.7683454471391L733.6076041666666,332.99160248840957L737.1253852083333,334.0121820255709L742.44625,334.88551422962644L746.4413179166667,334.9609774684934L751.2848958333334,335.60176269572787L759.9644460416667,336.0645833457586L760.1235416666667,336.3645188311879L768.9621875,336.7041446029029L771.9496497916667,336.9673729127448L777.8008333333333,337.3133469512796L784.924781875,337.23224950553765L786.6394791666668,337.5267482610807L795.4781250000001,337.0323708216848L796.4857306250001,336.38496257196135L804.3167708333333,336.74357326405294L810.3270500000001,273.07804887988516L813.1554166666667,285.7585778500082L821.9940625,295.704881989854L822.3652856250001,303.77496065100655L830.8327083333334,310.282036837284L837.2849197916667,315.5160035258834L839.6713541666667,317.7076286214005L848.5100000000001,321.6759209712972L852.0454583333334,324.6334122889464L857.3486458333334,323.2898383622698L863.8715664583334,326.04760570928363L866.1872916666667,328.4147378650868L875.0259374999999,330.0648669537501L878.5613958333334,330.6787453895284L883.8645833333334,326.36608510716326L892.3143287500001,326.29256891468196L892.7032291666667,327.78049161917744L901.541875,329.52916491792445L904.61772375,331.01094489907194L910.3805208333333,332.4208479850225L919.2191666666668,333.32071877734256L922.5424975000001,334.2505839561541L928.0578125000001,334.1247689558468L936.2247212500001,332.8702058762208L936.8964583333334,333.60760390345393L945.7351041666668,334.40642012199186L949.80088125,330.55825586258396L954.57375,332.0993815837808L963.4123958333333,333.24015897872346L969.3342885416668,331.2086872765648L972.2510416666667,330.30669108256313" style="fill: none;" fill="none"></path></g></g></g></g><g opacity="0.2"><g><g><g><path stroke="rgb(255, 112, 67)" stroke-width="2px" d="M107.65470625000002,49.13982187509538L114.90239583333334,326.92276700884105L121.31925270833334,321.8778208039701L123.74104166666667,319.74155663996936L131.62511375,334.9330259134993L132.5796875,326.12793997600676L141.41833333333335,334.6046027813107L144.05224979166667,325.8320228300989L150.25697916666667,337.1450526446104L153.43889166666668,334.782208263129L159.095625,336.9105236792937L161.60580041666668,335.4153666339815L167.93427083333333,323.6254807665944L173.75009979166668,336.5967305406928L176.77291666666667,320.2388191252947L185.6115625,333.92457211315633L185.62923979166666,336.49124698080124L194.45020833333334,336.55394462095575L196.55380604166666,336.09293989297004L203.28885416666668,336.8455045090057L208.0970775,334.8964477695525L212.12750000000003,332.08795035742224L218.33222937500003,324.9834860108793L220.96614583333334,338.3086013004184L229.8047916666667,336.7333047680557L231.14826583333334,337.1849117229693L238.6434375,334.50456491597L244.08804333333333,336.0191962003708L247.48208333333335,314.10627186596395L254.606031875,332.4864186041057L256.3207291666667,338.009405238973L265.159375,337.4673312005587L267.42206833333336,325.35170765519143L273.9980208333334,336.8343039687723L279.01837166666667,335.8134788565338L282.8366666666667,336.7792234543711L290.7384160416667,336.96916583944113L291.6753125,324.2261349067092L300.51395833333333,297.6641870766878L301.910464375,305.7532688111067L309.3526041666667,325.3120997950435L312.728966875,336.6206905433908L318.19125,335.109085464105L323.26463270833335,328.937652926147L327.02989583333334,320.444896004349L335.1260954166667,337.73099006731064L335.86854166666666,329.8890715904534L344.70718750000003,337.95343483979815L346.7931079166667,314.49524122029544L353.54583333333335,337.1561603166163L359.02579375000005,338.82259542769754L362.38447916666667,332.3731909926981L368.57153124999996,335.90570385307075L371.223125,324.7467882476747L379.708225,338.4923970025964L380.06177083333336,337.3470104929991L388.9004166666667,319.9512836441398L392.1353610416667,316.22970933020116L397.73906250000005,336.7201862970367L402.40586750000006,338.4699227159843L406.57770833333336,335.08262275923045L413.9314616666667,319.869072265178L415.4163541666667,336.7892277675681L424.25500000000005,325.89769137576224L424.3257091666667,335.85867636576296L433.09364583333337,337.4632718583569L437.60135520833336,314.80031527876855L441.9322916666667,331.0598144616932L447.51831583333336,336.084324740991L450.7709375,337.8661310693249L459.6095833333334,335.553058440052L462.5793683333333,338.0176783233881L468.4482291666667,337.45598407248036L474.40547645833334,337.19428140735255L477.286875,338.3846853074618L485.5598475,329.86183749996127L486.1255208333333,332.60928063578905L494.9641666666667,333.76922726836057L497.73950145833334,317.26129451692105L503.8028125,335.9944637587294L511.5101116666667,338.22615748755635L512.6414583333334,330.66987674981357L521.4801041666667,338.1791327213403L523.7427975,327.3196349024773L530.31875,338.2897346547805L536.0815470833334,338.30914033991286L539.1573958333333,337.15421341937036L547.9960416666668,338.2532799255103L549.2688066666667,326.69930323138834L556.8346875000001,335.93955634087325L560.8474327083334,330.681960503757L565.6733333333334,338.2272841073107L571.7543216666667,337.43086137361826L574.5119791666666,325.38178221434356L583.350625,338.16023315927015L583.403656875,315.39920544922353L592.1892708333334,325.22508805915714L597.5454902083334,325.68735484704376L601.0279166666667,337.91143803666347L606.6669727083333,326.33897029533983L609.8665625,338.03128097318114L617.7859891666667,323.1899642415345L618.7052083333334,338.1685955130495L627.5438541666667,338.663923214376L630.3368662500001,338.1737274920568L636.3825,338.02764138132335L642.5695520833334,317.3498651750386L645.2211458333333,336.3382844079286L654.0597916666667,338.5038725486491L654.1128235416667,327.41743269488217L662.8984375,337.02006535250695L669.9693541666668,338.38638634090313L671.7370833333333,325.31881439611317L680.5757291666667,325.3506824180484L684.1111875,326.84903139173986L689.4143750000001,324.5846238203347L698.2530208333334,337.06310284156353L698.270698125,324.612617007643L707.0916666666667,338.2860945362598L708.877073125,334.490429283306L715.9303125000001,337.8358098563738L720.4026672916667,338.05616860482843L724.7689583333333,338.0538414569572L733.6076041666666,325.5624233812094L737.1253852083333,338.27957936488093L742.44625,338.53721935227514L746.4413179166667,335.27651546727867L751.2848958333334,338.28110817954877L759.9644460416667,337.9997971518431L760.1235416666667,337.6186532184482L768.9621875,338.12423785561697L771.9496497916667,338.068021855969L777.8008333333333,338.75998451136985L784.924781875,336.8931529318914L786.6394791666668,338.758149793325L795.4781250000001,334.9652071243152L796.4857306250001,333.6779239319265L804.3167708333333,338.2430490594823L810.3270500000001,6.870389926433572L813.1554166666667,338.7802715230035L821.9940625,337.2938324606046L822.3652856250001,337.5187610631809L830.8327083333334,337.49038130529226L837.2849197916667,337.40103522380815L839.6713541666667,326.87157396897675L848.5100000000001,338.2687288799323L852.0454583333334,336.9997101819143L857.3486458333334,317.6718893527985L863.8715664583334,337.57878834679724L866.1872916666667,338.3125391590409L875.0259374999999,336.9646295161918L878.5613958333334,333.24558423757554L883.8645833333334,308.33335532546045L892.3143287500001,325.9851721927524L892.7032291666667,334.0020129794255L901.541875,336.8409750323743L904.61772375,337.2067814005539L910.3805208333333,338.3161422356032L919.2191666666668,337.08339095041157L922.5424975000001,338.13867307170295L928.0578125000001,333.5986927628517L936.2247212500001,327.6244421184063L936.8964583333334,336.6909210432321L945.7351041666668,337.74654804095627L949.80088125,314.4677452027798L954.57375,338.54336322629825L963.4123958333333,338.01014528814704L969.3342885416668,322.71439886391164L972.2510416666667,326.53513186722995" style="fill: none;" fill="none"></path></g></g></g></g></g></g><g transform="translate(51, 377)" clip-path="url(#clip_1)"><clipPath id="clip_1"><rect width="1060" height="23"></rect></clipPath><g><g><line x1="0" y1="0" x2="0" y2="5" style="visibility: inherit;" fill="rgb(0, 0, 0)" stroke="rgb(204, 204, 204)" stroke-width="1px"></line><line x1="88.38645833333334" y1="0" x2="88.38645833333334" y2="5" style="visibility: inherit;" fill="rgb(0, 0, 0)" stroke="rgb(204, 204, 204)" stroke-width="1px"></line><line x1="176.77291666666667" y1="0" x2="176.77291666666667" y2="5" style="visibility: inherit;" fill="rgb(0, 0, 0)" stroke="rgb(204, 204, 204)" stroke-width="1px"></line><line x1="265.159375" y1="0" x2="265.159375" y2="5" style="visibility: inherit;" fill="rgb(0, 0, 0)" stroke="rgb(204, 204, 204)" stroke-width="1px"></line><line x1="353.54583333333335" y1="0" x2="353.54583333333335" y2="5" style="visibility: inherit;" fill="rgb(0, 0, 0)" stroke="rgb(204, 204, 204)" stroke-width="1px"></line><line x1="441.9322916666667" y1="0" x2="441.9322916666667" y2="5" style="visibility: inherit;" fill="rgb(0, 0, 0)" stroke="rgb(204, 204, 204)" stroke-width="1px"></line><line x1="530.31875" y1="0" x2="530.31875" y2="5" style="visibility: inherit;" fill="rgb(0, 0, 0)" stroke="rgb(204, 204, 204)" stroke-width="1px"></line><line x1="618.7052083333334" y1="0" x2="618.7052083333334" y2="5" style="visibility: inherit;" fill="rgb(0, 0, 0)" stroke="rgb(204, 204, 204)" stroke-width="1px"></line><line x1="707.0916666666667" y1="0" x2="707.0916666666667" y2="5" style="visibility: inherit;" fill="rgb(0, 0, 0)" stroke="rgb(204, 204, 204)" stroke-width="1px"></line><line x1="795.4781250000001" y1="0" x2="795.4781250000001" y2="5" style="visibility: inherit;" fill="rgb(0, 0, 0)" stroke="rgb(204, 204, 204)" stroke-width="1px"></line><line x1="883.8645833333334" y1="0" x2="883.8645833333334" y2="5" style="visibility: inherit;" fill="rgb(0, 0, 0)" stroke="rgb(204, 204, 204)" stroke-width="1px"></line><line x1="972.2510416666667" y1="0" x2="972.2510416666667" y2="5" style="visibility: inherit;" fill="rgb(0, 0, 0)" stroke="rgb(204, 204, 204)" stroke-width="1px"></line><line x1="1060.6375" y1="0" x2="1060.6375" y2="5" style="visibility: inherit;" fill="rgb(0, 0, 0)" stroke="rgb(204, 204, 204)" stroke-width="1px"></line></g><g transform="translate(0, 8)"><text x="0" y="0" dx="0em" dy="0.95em" style="text-anchor: middle; visibility: hidden; font-family: Roboto, sans-serif; font-size: 12px; font-weight: 200;" fill="rgb(33, 33, 33)" stroke="none" stroke-width="1px">-5k</text><text x="88.38645833333334" y="0" dx="0em" dy="0.95em" style="text-anchor: middle; visibility: inherit; font-family: Roboto, sans-serif; font-size: 12px; font-weight: 200;" fill="rgb(33, 33, 33)" stroke="none" stroke-width="1px">0</text><text x="176.77291666666667" y="0" dx="0em" dy="0.95em" style="text-anchor: middle; visibility: inherit; font-family: Roboto, sans-serif; font-size: 12px; font-weight: 200;" fill="rgb(33, 33, 33)" stroke="none" stroke-width="1px">5k</text><text x="265.159375" y="0" dx="0em" dy="0.95em" style="text-anchor: middle; visibility: inherit; font-family: Roboto, sans-serif; font-size: 12px; font-weight: 200;" fill="rgb(33, 33, 33)" stroke="none" stroke-width="1px">10k</text><text x="353.54583333333335" y="0" dx="0em" dy="0.95em" style="text-anchor: middle; visibility: inherit; font-family: Roboto, sans-serif; font-size: 12px; font-weight: 200;" fill="rgb(33, 33, 33)" stroke="none" stroke-width="1px">15k</text><text x="441.9322916666667" y="0" dx="0em" dy="0.95em" style="text-anchor: middle; visibility: inherit; font-family: Roboto, sans-serif; font-size: 12px; font-weight: 200;" fill="rgb(33, 33, 33)" stroke="none" stroke-width="1px">20k</text><text x="530.31875" y="0" dx="0em" dy="0.95em" style="text-anchor: middle; visibility: inherit; font-family: Roboto, sans-serif; font-size: 12px; font-weight: 200;" fill="rgb(33, 33, 33)" stroke="none" stroke-width="1px">25k</text><text x="618.7052083333334" y="0" dx="0em" dy="0.95em" style="text-anchor: middle; visibility: inherit; font-family: Roboto, sans-serif; font-size: 12px; font-weight: 200;" fill="rgb(33, 33, 33)" stroke="none" stroke-width="1px">30k</text><text x="707.0916666666667" y="0" dx="0em" dy="0.95em" style="text-anchor: middle; visibility: inherit; font-family: Roboto, sans-serif; font-size: 12px; font-weight: 200;" fill="rgb(33, 33, 33)" stroke="none" stroke-width="1px">35k</text><text x="795.4781250000001" y="0" dx="0em" dy="0.95em" style="text-anchor: middle; visibility: inherit; font-family: Roboto, sans-serif; font-size: 12px; font-weight: 200;" fill="rgb(33, 33, 33)" stroke="none" stroke-width="1px">40k</text><text x="883.8645833333334" y="0" dx="0em" dy="0.95em" style="text-anchor: middle; visibility: inherit; font-family: Roboto, sans-serif; font-size: 12px; font-weight: 200;" fill="rgb(33, 33, 33)" stroke="none" stroke-width="1px">45k</text><text x="972.2510416666667" y="0" dx="0em" dy="0.95em" style="text-anchor: middle; visibility: inherit; font-family: Roboto, sans-serif; font-size: 12px; font-weight: 200;" fill="rgb(33, 33, 33)" stroke="none" stroke-width="1px">50k</text><text x="1060.6375" y="0" dx="0em" dy="0.95em" style="text-anchor: middle; visibility: hidden; font-family: Roboto, sans-serif; font-size: 12px; font-weight: 200;" fill="rgb(33, 33, 33)" stroke="none" stroke-width="1px">55k</text></g><line x1="0" y1="0" x2="1060.6375" y2="0" fill="rgb(0, 0, 0)" stroke="rgb(204, 204, 204)" stroke-width="1px"></line></g></g></g></g></svg>